<?xml version="1.0" encoding="utf-8"?>
<!-- Generator: Adobe Illustrator 27.0.0, SVG Export Plug-In . SVG Version: 6.00 Build 0)  -->
<svg version="1.1" id="Ñëîé_1" xmlns="http://www.w3.org/2000/svg" xmlns:xlink="http://www.w3.org/1999/xlink" x="0px" y="0px"
	 viewBox="0 0 512 512" style="enable-background:new 0 0 512 512;" xml:space="preserve">
<g id="XMLID_1_">
	<path id="XMLID_18_" d="M20.26,270.47c0,3.65,5.33,1.82,5.33,3.23c0,0.7-0.56,0.7-1.4,0.7c-2.53,0-3.93-0.14-7.16-0.14
		c-3.23,0-4.63,0.14-7.16,0.14c-0.84,0-1.4-0.14-1.4-0.7c0-1.4,5.33,0.42,5.33-3.23v-31.15c-5.47,0-10.1,4.77-12.21,9.12
		c-0.56,1.26-0.84,1.96-1.12,1.96c-0.42,0-0.42-0.28-0.42-0.42c0-0.7,0.28-1.96,0.56-2.95l1.68-8.84c0-0.28,0.14-0.98,0.56-0.98
		c0.28,0,0.42,0.28,0.7,0.42c0.28,0.28,0.84,0.42,1.96,0.42h23.15c1.12,0,1.54-0.28,1.96-0.42c0.28-0.28,0.42-0.42,0.7-0.42
		c0.42,0,0.56,0.7,0.56,0.98l1.68,8.84c0.28,0.98,0.56,2.25,0.56,2.95c0,0.28-0.14,0.42-0.42,0.42c-0.28,0-0.56-0.7-1.12-1.96
		c-2.1-4.35-6.73-9.12-12.21-9.12v31.15H20.26z"/>
	<path id="XMLID_17_" d="M44.39,255.74v14.59c0,3.65,4.49,1.82,4.49,3.23c0,0.7-0.28,0.7-1.12,0.7c-1.82,0-3.23-0.14-6.45-0.14
		c-3.23,0-4.63,0.14-6.45,0.14c-0.84,0-1.12-0.14-1.12-0.7c0-1.4,4.49,0.42,4.49-3.23v-28.62c0-3.65-4.49-1.82-4.49-3.23
		c0-0.7,0.28-0.7,1.12-0.7c1.82,0,3.23,0.14,6.45,0.14c3.23,0,4.63-0.14,6.45-0.14c0.84,0,1.12,0.14,1.12,0.7
		c0,1.4-4.49-0.42-4.49,3.23v12.63h15.43v-12.63c0-3.65-4.49-1.82-4.49-3.23c0-0.7,0.28-0.7,1.12-0.7c1.82,0,3.23,0.14,6.45,0.14
		c3.23,0,4.63-0.14,6.45-0.14c0.84,0,1.12,0.14,1.12,0.7c0,1.4-4.49-0.42-4.49,3.23v28.62c0,3.65,4.49,1.82,4.49,3.23
		c0,0.7-0.28,0.7-1.12,0.7c-1.82,0-3.23-0.14-6.45-0.14c-3.23,0-4.63,0.14-6.45,0.14c-0.84,0-1.12-0.14-1.12-0.7
		c0-1.4,4.49,0.42,4.49-3.23v-14.59L44.39,255.74L44.39,255.74z"/>
	<path id="XMLID_16_" d="M76.24,241.85c0-3.65-4.49-1.82-4.49-3.23c0-0.7,0.28-0.7,1.12-0.7c1.82,0,3.23,0.14,6.45,0.14
		c11.79,0,15.71-0.14,19.64-0.14l2.53,9.96c0.14,0.7,0.28,1.12,0.28,1.4c0,0.42-0.14,0.56-0.42,0.56c-0.7,0-0.42-1.4-3.09-5.05
		c-3.23-4.63-7.86-5.61-14.17-5.61h-1.54v15.71h1.12c4.63,0,8.14-1.82,8.14-7.16c0-0.84,0.28-0.98,0.7-0.98
		c0.42,0,0.7,0.28,0.7,0.98v16c0,0.84-0.28,0.98-0.7,0.98c-0.42,0-0.7-0.14-0.7-0.98c0-5.61-3.51-7.44-8.14-7.44h-1.12v13.89
		c0,1.96,1.26,2.95,4.49,2.95c9.96,0,14.17-6.59,15.71-11.79c0.28-0.84,0.42-1.12,0.84-1.12c0.42,0,0.42,0.28,0.42,0.56
		c0,0.28,0,0.84-0.14,1.54l-2.25,12.07c-4.49,0-8.98-0.14-22.31-0.14c-3.23,0-4.63,0.14-6.45,0.14c-0.84,0-1.12-0.14-1.12-0.7
		c0-1.4,4.49,0.42,4.49-3.23L76.24,241.85L76.24,241.85z"/>
	<path id="XMLID_15_" d="M136.43,270.47c0,3.65,5.33,1.82,5.33,3.23c0,0.7-0.56,0.7-1.4,0.7c-2.53,0-3.93-0.14-7.16-0.14
		s-4.63,0.14-7.16,0.14c-0.84,0-1.4-0.14-1.4-0.7c0-1.4,5.33,0.42,5.33-3.23v-31.15c-5.47,0-10.1,4.77-12.21,9.12
		c-0.56,1.26-0.84,1.96-1.12,1.96c-0.42,0-0.42-0.28-0.42-0.42c0-0.7,0.28-1.96,0.56-2.95l1.68-8.84c0-0.28,0.14-0.98,0.56-0.98
		c0.28,0,0.42,0.28,0.7,0.42c0.28,0.28,0.84,0.42,1.96,0.42h23.15c1.12,0,1.54-0.28,1.96-0.42c0.28-0.28,0.42-0.42,0.7-0.42
		c0.42,0,0.56,0.7,0.56,0.98l1.68,8.84c0.28,0.98,0.56,2.25,0.56,2.95c0,0.28-0.14,0.42-0.42,0.42c-0.28,0-0.56-0.7-1.12-1.96
		c-2.1-4.35-6.74-9.12-12.21-9.12L136.43,270.47L136.43,270.47z"/>
	<path id="XMLID_14_" d="M154.67,241.85c0-3.65-4.49-1.82-4.49-3.23c0-0.7,0.28-0.7,1.12-0.7c1.82,0,3.23,0.14,6.45,0.14
		c3.23,0,4.63-0.14,6.45-0.14c0.84,0,1.12,0.14,1.12,0.7c0,1.4-4.49-0.42-4.49,3.23v28.62c0,3.65,4.49,1.82,4.49,3.23
		c0,0.7-0.28,0.7-1.12,0.7c-1.82,0-3.23-0.14-6.45-0.14c-3.23,0-4.63,0.14-6.45,0.14c-0.84,0-1.12-0.14-1.12-0.7
		c0-1.4,4.49,0.42,4.49-3.23V241.85z"/>
	<path id="XMLID_13_" d="M188.63,265.28l11.51-27.36h2.53c3.23,0,4.63-0.14,6.45-0.14c0.84,0,1.12,0.14,1.12,0.7
		c0,1.4-4.49-0.42-4.49,3.23v28.62c0,3.65,4.49,1.82,4.49,3.23c0,0.7-0.28,0.7-1.12,0.7c-1.82,0-3.23-0.14-6.45-0.14
		s-4.63,0.14-6.45,0.14c-0.84,0-1.12-0.14-1.12-0.7c0-1.4,4.49,0.42,4.49-3.23v-27.78h-0.14l-12.49,30.59
		c-0.28,0.42-0.42,1.12-0.84,1.12c-0.28,0-0.42-0.56-0.7-1.12l-12.21-30.17h-0.14v22.45c0,4.49,1.54,6.73,3.65,7.44
		c1.4,0.42,1.96,0.28,1.96,0.98c0,0.42-0.28,0.56-1.12,0.56c-1.54,0-2.95-0.14-5.05-0.14c-3.37,0-4.77,0.14-5.61,0.14
		c-0.7,0-1.26,0-1.26-0.56c0-0.84,0.56-0.56,1.96-0.98c3.79-1.12,4.21-5.19,4.21-11.65v-18.1c0-4.77-5.47-3.09-5.47-4.35
		c0-0.7,0.28-0.7,1.12-0.7c1.82,0,3.23,0.14,6.45,0.14h3.37L188.63,265.28z"/>
	<path id="XMLID_12_" d="M215.71,241.85c0-3.65-4.49-1.82-4.49-3.23c0-0.7,0.28-0.7,1.12-0.7c1.82,0,3.23,0.14,6.45,0.14
		c11.79,0,15.71-0.14,19.64-0.14l2.53,9.96c0.14,0.7,0.28,1.12,0.28,1.4c0,0.42-0.14,0.56-0.42,0.56c-0.7,0-0.42-1.4-3.09-5.05
		c-3.23-4.63-7.86-5.61-14.17-5.61h-1.54v15.71h1.12c4.63,0,8.14-1.82,8.14-7.16c0-0.84,0.28-0.98,0.7-0.98s0.7,0.28,0.7,0.98v16
		c0,0.84-0.28,0.98-0.7,0.98s-0.7-0.14-0.7-0.98c0-5.61-3.51-7.44-8.14-7.44h-1.12v13.89c0,1.96,1.26,2.95,4.49,2.95
		c9.96,0,14.17-6.59,15.71-11.79c0.28-0.84,0.42-1.12,0.84-1.12s0.42,0.28,0.42,0.56c0,0.28,0,0.84-0.14,1.54l-2.25,12.07
		c-4.49,0-8.98-0.14-22.31-0.14c-3.23,0-4.63,0.14-6.45,0.14c-0.84,0-1.12-0.14-1.12-0.7c0-1.4,4.49,0.42,4.49-3.23L215.71,241.85
		L215.71,241.85z"/>
	<path id="XMLID_11_" d="M245.6,259.53c0-0.42,0.28-0.7,0.56-0.7c0.56,0,0.56,0.42,0.84,1.54c0.98,6.59,4.07,13.33,11.51,13.33
		c5.75,0,8.28-3.23,8.28-6.88c0-10.8-21.19-6.45-21.19-19.64c0-5.61,5.47-10.24,12.07-10.24c5.05,0,7.02,2.1,9.26,2.1
		c1.68,0,0.98-1.68,1.96-1.68c0.42,0,0.56,0.28,0.56,0.84c0.7,7.44,0.98,11.22,0.98,11.93c0,0.56-0.28,0.7-0.56,0.7
		c-0.42,0-0.56-0.7-0.7-1.26c-1.96-6.03-5.05-11.22-11.51-11.22c-4.35,0-6.88,2.39-6.88,5.75c0,9.82,21.19,6.59,21.19,19.5
		c0,5.61-4.35,11.37-13.61,11.37c-4.21,0-8-1.96-9.54-1.96c-2.39,0-1.54,1.82-2.53,1.82c-0.28,0-0.56-0.14-0.56-0.7L245.6,259.53
		L245.6,259.53z"/>
	<path id="XMLID_56_" d="M326,256.16c0,11.93-10.1,18.94-19.22,18.94c-8.98,0-19.22-7.02-19.22-18.94
		c0-11.93,10.1-18.94,19.22-18.94C315.89,237.08,326,244.09,326,256.16z M306.77,238.48c-7.02,0-12.21,5.61-12.21,17.68
		c0,12.07,5.19,17.68,12.21,17.68c7.02,0,12.21-5.61,12.21-17.68C318.98,244.09,313.79,238.48,306.77,238.48z"/>
	<path id="XMLID_8_" d="M331.89,241.85c0-3.65-4.49-1.82-4.49-3.23c0-0.7,0.28-0.7,1.12-0.7c1.82,0,3.23,0.14,6.45,0.14
		c11.79,0,15.72-0.14,19.22-0.14l2.53,9.96c0.14,0.7,0.28,1.12,0.28,1.4c0,0.42-0.14,0.56-0.42,0.56c-0.7,0-0.42-1.4-3.09-5.05
		c-3.23-4.63-7.86-5.61-14.17-5.61h-1.12v15.71h1.12c4.63,0,8.14-1.82,8.14-7.16c0-0.84,0.28-0.98,0.7-0.98
		c0.42,0,0.7,0.28,0.7,0.98v16c0,0.84-0.28,0.98-0.7,0.98c-0.42,0-0.7-0.14-0.7-0.98c0-5.61-3.51-7.44-8.14-7.44h-1.12v14.17
		c0,3.65,4.49,1.82,4.49,3.23c0,0.7-0.28,0.7-1.12,0.7c-1.82,0-3.23-0.14-6.45-0.14c-3.23,0-4.63,0.14-6.45,0.14
		c-0.84,0-1.12-0.14-1.12-0.7c0-1.4,4.49,0.42,4.49-3.23L331.89,241.85L331.89,241.85z"/>
	<path id="XMLID_7_" d="M374.96,241.85c0-3.65-4.49-1.82-4.49-3.23c0-0.7,0.28-0.7,1.12-0.7c1.82,0,3.23,0.14,6.45,0.14
		c3.23,0,4.63-0.14,6.45-0.14c0.84,0,1.12,0.14,1.12,0.7c0,1.4-4.49-0.42-4.49,3.23v28.62c0,3.65,4.49,1.82,4.49,3.23
		c0,0.7-0.28,0.7-1.12,0.7c-1.82,0-3.23-0.14-6.45-0.14c-3.23,0-4.63,0.14-6.45,0.14c-0.84,0-1.12-0.14-1.12-0.7
		c0-1.4,4.49,0.42,4.49-3.23V241.85z"/>
	<path id="XMLID_6_" d="M416.92,246.76c0-4.49-1.96-6.74-4.07-7.44c-1.4-0.42-1.96-0.28-1.96-0.98c0-0.42,0.28-0.56,1.12-0.56
		c1.96,0,3.37,0.14,5.61,0.14c2.25,0,3.65-0.14,5.61-0.14c0.84,0,1.12,0.14,1.12,0.56c0,0.7-0.7,0.56-1.96,0.98
		c-1.96,0.7-4.07,2.81-4.07,7.44v27.5c0,0.42-0.28,0.7-0.7,0.7s-0.84-0.14-1.12-0.56l-22.73-30.17h-0.14v21.05
		c0,4.49,1.96,6.73,4.07,7.44c1.4,0.42,1.96,0.28,1.96,0.98c0,0.42-0.28,0.56-1.12,0.56c-1.96,0-3.37-0.14-5.61-0.14
		c-2.25,0-3.65,0.14-5.61,0.14c-0.84,0-1.12-0.14-1.12-0.56c0-0.7,0.7-0.56,1.96-0.98c1.96-0.7,4.07-2.81,4.07-7.44v-22.87
		c-3.09-4.49-6.03-2.95-6.03-3.93c0-0.56,0.42-0.7,1.12-0.7c1.26,0,2.39,0.14,4.07,0.14h4.91L416.5,265h0.14L416.92,246.76
		L416.92,246.76z"/>
	<path id="XMLID_46_" d="M427.3,241.85c0-3.65-4.49-1.82-4.49-3.23c0-0.7,0.28-0.7,1.12-0.7c1.82,0,3.23,0.14,6.45,0.14
		c2.24,0,4.63-0.14,7.58-0.14c12.63,0,20.49,7.44,20.49,18.38c0,9.96-6.17,18.1-18.24,18.1c-3.65,0-6.73-0.14-9.82-0.14
		c-3.23,0-4.63,0.14-6.45,0.14c-0.84,0-1.12-0.14-1.12-0.7c0-1.4,4.49,0.42,4.49-3.23V241.85z M433.76,268.23
		c0,3.37,1.96,4.77,5.89,4.77c6.03,0,11.93-2.81,11.93-16.42c0-10.24-4.07-17.54-12.21-17.54h-5.47v29.18H433.76z"/>
	<path id="XMLID_3_" d="M465.61,241.85c0-3.65-4.49-1.82-4.49-3.23c0-0.7,0.28-0.7,1.12-0.7c1.82,0,3.23,0.14,6.45,0.14
		s4.63-0.14,6.45-0.14c0.84,0,1.12,0.14,1.12,0.7c0,1.4-4.49-0.42-4.49,3.23v28.62c0,3.65,4.49,1.82,4.49,3.23
		c0,0.7-0.28,0.7-1.12,0.7c-1.82,0-3.23-0.14-6.45-0.14s-4.63,0.14-6.45,0.14c-0.84,0-1.12-0.14-1.12-0.7c0-1.4,4.49,0.42,4.49-3.23
		V241.85z"/>
	<path id="XMLID_42_" d="M485.39,261.21c-1.4,4.07-2.1,5.61-2.1,7.16c0,5.33,4.49,4.07,4.49,5.33c0,0.56-0.28,0.56-0.84,0.56
		c-1.12,0-2.39-0.14-6.03-0.14c-1.82,0-3.51,0.14-5.47,0.14c-0.56,0-0.7-0.28-0.7-0.7c0-0.98,2.1-0.42,3.65-1.68
		c1.4-1.12,3.09-4.07,4.63-7.72c6.45-16,7.3-17.96,7.3-18.52c0-0.42-1.26-1.4-1.26-1.96c0-0.84,0.84-0.7,2.39-3.79
		c1.12-2.39,0.84-3.09,1.54-3.09c0.7,0,0.7,1.82,3.79,8.84l11.37,25.26c1.4,3.09,3.93,1.54,3.93,2.81c0,0.56-0.42,0.7-0.84,0.7
		c-2.1,0-4.21-0.14-6.45-0.14c-2.1,0-4.21,0.14-6.45,0.14c-0.56,0-0.84-0.14-0.84-0.7c0-1.4,3.79,0.28,3.79-2.67
		c0-0.42-0.56-2.1-0.84-2.95l-3.09-7.02L485.39,261.21L485.39,261.21z M490.86,246.76l-5.05,13.19h10.8L490.86,246.76z"/>
</g>
</svg>
